{"title":"Red.Hill.LIMITED.720p.BRRip.H264.Feel-Free","uid":5959988,"size":1521953415,"categoryP":"video","categoryS":"hd___movies","magnet":"?xt=urn:btih:192c7b6504406cd37f67e6caaabeb60313c1971d&amp;dn=Red.Hill.LIMITED.720p.BRRip.H264.Feel-Free&amp;tr=udp%3A%2F%2Ftracker.openbittorrent.com%3A80&amp;tr=udp%3A%2F%2Fopen.demonii.com%3A1337&amp;tr=udp%3A%2F%2Ftracker.coppersurfer.tk%3A6969&amp;tr=udp%3A%2F%2Fexodus.desync.com%3A6969","seeders":3,"leechers":0,"uploader":"deffjam555","files":10,"time":1289912467,"description":"Genre:Crime | Thriller | Western\nLanguage:English\nIMDb:http://www.imdb.com/title/tt1530983/\nSource:720p.BluRay.x264.REFiNED\n\nGeneral\nComplete name :Red.Hill.LIMITED.720p.BRRip.H264.Feel-Free\nFormat : MPEG-4\nFormat profile : Base Media / Version 2\nCodec ID : mp42\nFile size : 1.41 GiB\nDuration : 1h 37mn\nOverall bit rate : 2 080 Kbps\nVideo #1\nCodec ID : avc1\nCodec ID/Info : Advanced Video Coding\nDuration : 1h 37mn\nBit rate mode : Variable\nBit rate : 1 599 Kbps\nWidth : 1 280 pixels\nHeight : 536 pixels\nDisplay aspect ratio : 2.35:1\nFrame rate mode : Constant\nFrame rate : 23.976 fps\nResolution : 24 bits\nColorimetry : 4:2:0\nScan type : Progressive\nBits/(Pixel*Frame) : 0.097\nStream size : 1.08 GiB (77%)\nAudio #2\nID : 2\nFormat : AAC\nFormat/Info : Advanced Audio Codec\nFormat version : Version 4\nFormat profile : LC\nFormat settings, SBR : No\nCodec ID : 40\nDuration : 1h 37mn\nBit rate mode : Constant\nBit rate : 477 Kbps\nNominal bit rate : 480 Kbps\nChannel(s) : 6 channels\nChannel positions : Front: L C R, Rear: L R, LFE\nSampling rate : 48.0 KHz\nResolution : 16 bits\nStream size : 331 MiB (23%)\n\nPlot:\nA young police officer must survive his first day's duty in a small country town\n\n\nscreens\n &lt;a href=&quot;\nhttp://rapidhdd.com/images/355756vlcsnap-2010-11-16-13h42m33s184.png&quot; rel=&quot;nofollow&quot; target=&quot;_NEW&quot;&gt;\nhttp://rapidhdd.com/images/355756vlcsnap-2010-11-16-13h42m33s184.png&lt;/a&gt; &lt;a href=&quot;\nhttp://www.rapidhdd.com/images/434091vlcsnap-2010-11-16-13h45m04s134.png&quot; rel=&quot;nofollow&quot; target=&quot;_NEW&quot;&gt;\nhttp://www.rapidhdd.com/images/434091vlcsnap-2010-11-16-13h45m04s134.png&lt;/a&gt; &lt;a href=&quot;\nhttp://www.rapidhdd.com/images/967070vlcsnap-2010-11-16-13h43m21s158.png&quot; rel=&quot;nofollow&quot; target=&quot;_NEW&quot;&gt;\nhttp://www.rapidhdd.com/images/967070vlcsnap-2010-11-16-13h43m21s158.png&lt;/a&gt; &lt;a href=&quot;\nhttp://www.rapidhdd.com/images/590097vlcsnap-2010-11-16-13h42m59s183.png&quot; rel=&quot;nofollow&quot; target=&quot;_NEW&quot;&gt;\nhttp://www.rapidhdd.com/images/590097vlcsnap-2010-11-16-13h42m59s183.png&lt;/a&gt; &lt;a href=&quot;\nhttp://www.rapidhdd.com/images/814757vlcsnap-2010-11-16-13h45m46s59.png&quot; rel=&quot;nofollow&quot; target=&quot;_NEW&quot;&gt;\nhttp://www.rapidhdd.com/images/814757vlcsnap-2010-11-16-13h45m46s59.png&lt;/a&gt;","torrent":{"xt":"urn:btih:192c7b6504406cd37f67e6caaabeb60313c1971d","amp;dn":"Red.Hill.LIMITED.720p.BRRip.H264.Feel-Free","amp;tr":["udp%3A%2F%2Ftracker.openbittorrent.com%3A80","udp%3A%2F%2Fopen.demonii.com%3A1337","udp%3A%2F%2Ftracker.coppersurfer.tk%3A6969","udp%3A%2F%2Fexodus.desync.com%3A6969"],"infoHash":"192c7b6504406cd37f67e6caaabeb60313c1971d","infoHashBuffer":{"type":"Buffer","data":[25,44,123,101,4,64,108,211,127,103,230,202,170,190,182,3,19,193,151,29]},"announce":[],"urlList":[]}}